<?xml version="1.0" encoding="UTF-8" standalone="no" ?>
<!DOCTYPE svg PUBLIC "-//W3C//DTD SVG 1.1//EN" "http://www.w3.org/Graphics/SVG/1.1/DTD/svg11.dtd">
<svg xmlns="http://www.w3.org/2000/svg" xmlns:xlink="http://www.w3.org/1999/xlink" version="1.1" width="240" height="240" viewBox="0 0 240 240" xml:space="preserve">
<desc>Created with Fabric.js 3.6.6</desc>
<defs>
</defs>
<g transform="matrix(1 0 0 1 119.94 120.22)"  >
<g style=""   >
		<g transform="matrix(1 0 0 1 -11.46 12.03)"  >
<path style="stroke: none; stroke-width: 1; stroke-dasharray: none; stroke-linecap: butt; stroke-dashoffset: 0; stroke-linejoin: miter; stroke-miterlimit: 4; fill: rgb(71,74,182); fill-rule: nonzero; opacity: 1;"  transform=" translate(-64.54, -91.64)" d="M 0 0 C 2.375 -0.125 2.375 -0.125 5 0 C 5.66 0.66 6.32 1.32 7 2 C 6.87089073 7.93902631 4.53237005 12.849662 2.15625 18.23046875 C -0.1453553 23.7434355 -0.26194233 28.86990071 -0.5234375 34.80859375 C -1.04933876 38.33040793 -1.77061608 40.23164415 -4 43 C -6.34765625 44.1171875 -6.34765625 44.1171875 -9.0625 44.875 C -14.47964446 46.61828319 -18.49634752 49.17641827 -23.00390625 52.609375 C -25 54 -25 54 -27 54 C -27.1134375 54.556875 -27.226875 55.11375 -27.34375 55.6875 C -28.34831291 59.22738834 -30.14048059 62.31440485 -31.84375 65.5625 C -35.43401818 73.13117346 -34.72307431 81.68519196 -32.10546875 89.4765625 C -28.81772883 96.98143878 -24.58205197 102.78238294 -17 106 C -15.89393528 106.50267017 -15.89393528 106.50267017 -14.76552582 107.0154953 C -6.74115832 110.33984827 0.71638756 110.56989161 9.30273438 110.51757812 C 10.8135902 110.52300997 12.32444072 110.53013856 13.83528137 110.53881836 C 17.90768691 110.5569286 21.97968346 110.55003562 26.05209541 110.53730202 C 30.33238885 110.52711007 34.61264939 110.53658478 38.89294434 110.54284668 C 46.07826973 110.55010517 53.26343017 110.54058281 60.44873047 110.52148438 C 68.73256256 110.49971905 77.01600073 110.5067717 85.29982328 110.52879 C 92.43734699 110.54699548 99.57475275 110.54947726 106.71229219 110.53903532 C 110.96420013 110.53282857 115.21592345 110.53188647 119.46781921 110.54518127 C 123.46700486 110.55681452 127.46568716 110.54857932 131.46481895 110.52560425 C 132.9244014 110.52035674 134.3840269 110.52176231 135.84359169 110.53065491 C 143.77811368 110.57450612 150.35620138 110.09354403 157.67397308 106.88121796 C 161.23198353 105.53326163 164.23942583 105.71618308 168 106 C 168.8125 108.1875 168.8125 108.1875 169 111 C 165.91025298 115.47480603 162.19100021 117.13628902 157.11328125 118.5078125 C 150.75477172 119.51304738 144.42460481 119.16333741 138 119 C 138.33 124.94 138.66 130.88 139 137 C 141.31 137.66 143.62 138.32 146 139 C 146.20625 138.2575 146.4125 137.515 146.625 136.75 C 148.4973035 133.005393 150.24680792 131.84247611 154 130 C 159.61021001 129.09674615 164.24951027 129.71989995 169 133 C 172.59428859 136.83390783 172.61175959 141.23075883 172.49609375 146.265625 C 171.7051922 150.62492488 169.35733934 153.23410904 166 156 C 162.29240268 157.85379866 158.04626515 157.45923868 154 157 C 150.14455202 155.00342873 148.40194908 153.60292362 146 150 C 146 149.01 146 148.02 146 147 C 145.26394531 147.04640625 144.52789062 147.0928125 143.76953125 147.140625 C 135.75365049 147.43711729 135.75365049 147.43711729 131.875 145.1875 C 129.05856049 141.9016539 128.8770715 139.28320199 128.90234375 135.11328125 C 128.90556641 134.17548828 128.90878906 133.23769531 128.91210938 132.27148438 C 128.92048828 131.29501953 128.92886719 130.31855469 128.9375 129.3125 C 128.94201172 128.32443359 128.94652344 127.33636719 128.95117188 126.31835938 C 128.9629568 123.87888042 128.98089217 121.43943259 129 119 C 122.4 119 115.8 119 109 119 C 109.11971007 125.08738428 109.24227602 131.17456672 109.37231445 137.26171875 C 109.41569577 139.33362366 109.45736846 141.40556507 109.49731445 143.47753906 C 109.55493965 146.45128391 109.61865625 149.42484448 109.68359375 152.3984375 C 109.70866249 153.79381241 109.70866249 153.79381241 109.73423767 155.21737671 C 109.75418289 156.07811798 109.77412811 156.93885925 109.79467773 157.82568359 C 109.81022202 158.58513275 109.8257663 159.34458191 109.84178162 160.12704468 C 109.89127127 162.09115721 109.89127127 162.09115721 111 164 C 114.02934491 164.65772428 114.02934491 164.65772428 117 165 C 117.268125 164.236875 117.53625 163.47375 117.8125 162.6875 C 119.2223192 159.49685654 120.41288017 157.64660438 123.6875 156.3125 C 128.98186598 155.59704514 134.3196616 155.1397932 139 158 C 142.4528928 161.63953566 143.30736476 164.61769312 143.5 169.5 C 143.31404504 174.38131771 142.39429287 177.3228494 139 181 C 134.55735864 183.73175181 130.0674411 183.66340317 125 183 C 121.14455202 181.00342873 119.40194908 179.60292362 117 176 C 117 175.01 117 174.02 117 173 C 115.89591797 173.10441406 115.89591797 173.10441406 114.76953125 173.2109375 C 113.79371094 173.26507813 112.81789063 173.31921875 111.8125 173.375 C 110.84957031 173.44460938 109.88664063 173.51421875 108.89453125 173.5859375 C 105.52636924 172.90412333 104.15104931 171.67366443 102.04463196 168.99960327 C 99.91036153 164.91424661 100.39773533 160.41472838 100.51171875 155.9140625 C 100.52233086 154.32868179 100.52233086 154.32868179 100.53315735 152.71127319 C 100.56105885 149.34845034 100.62379245 145.98731628 100.6875 142.625 C 100.71258822 140.33986786 100.73540047 138.05470952 100.75585938 135.76953125 C 100.80661293 130.17851968 100.90447937 124.59114116 101 119 C 94.07 119 87.14 119 80 119 C 80.05220703 122.64675781 80.05220703 122.64675781 80.10546875 126.3671875 C 80.12885234 128.71694768 80.14707567 131.066695 80.16479492 133.41650391 C 80.17989911 135.05197941 80.20038389 136.68741429 80.22631836 138.32275391 C 80.26263145 140.67100024 80.27970932 143.01871205 80.29296875 145.3671875 C 80.30845261 146.10057343 80.32393646 146.83395935 80.33988953 147.58956909 C 80.34057617 149.65185547 80.34057617 149.65185547 80 153 C 77 155 77 155 74.875 154.6875 C 73 154 73 154 72 153 C 71.91152257 150.47905924 71.88472699 147.98569107 71.90234375 145.46484375 C 71.9037587 144.71159317 71.90517365 143.95834259 71.90663147 143.18226624 C 71.91224624 140.7673044 71.92480117 138.35243399 71.9375 135.9375 C 71.9425131 134.30403779 71.94707634 132.67057414 71.95117188 131.03710938 C 71.96137125 127.0246757 71.98094355 123.01244064 72 119 C 64.74 119 57.48 119 50 119 C 50 122.96 50 126.92 50 131 C 45 132 45 132 42 130 C 41.58379057 126.30406029 41.86992526 122.72880913 42 119 C 35.4 119 28.8 119 22 119 C 22.10441406 121.40345703 22.10441406 121.40345703 22.2109375 123.85546875 C 22.2672211 125.96610387 22.3218206 128.07678438 22.375 130.1875 C 22.42527344 131.24259766 22.47554688 132.29769531 22.52734375 133.38476562 C 22.67047478 140.94685515 22.67047478 140.94685515 20.82666016 143.84301758 C 18.47820677 145.97677037 16.32963084 146.9419664 13.2265625 147.48828125 C 12.36804688 147.43027344 11.50953125 147.37226563 10.625 147.3125 C 9.75101563 147.26738281 8.87703125 147.22226562 7.9765625 147.17578125 C 7.32429688 147.11777344 6.67203125 147.05976563 6 147 C 5.79375 147.721875 5.5875 148.44375 5.375 149.1875 C 3.60619602 152.80550814 1.58871367 155.20564316 -2 157 C -7.00619547 157.94272512 -10.8342226 157.55109477 -15.4375 155.375 C -19.36664148 151.73335668 -21.12217703 148.32997533 -21.4375 143 C -21.25887909 138.75369377 -19.7873166 136.23931389 -17 133 C -13.2848674 129.81560063 -9.94073506 129.53398601 -5.21484375 129.71484375 C -1.93467785 130.13715788 0.28656464 131.12643749 3 133 C 3.495 133.886875 3.99 134.77375 4.5 135.6875 C 4.995 136.450625 5.49 137.21375 6 138 C 7.98 138 9.96 138 12 138 C 12.33 131.73 12.66 125.46 13 119 C 11.32292969 119.04640625 9.64585937 119.0928125 7.91796875 119.140625 C 5.67449713 119.17817264 3.43100605 119.21456956 1.1875 119.25 C 0.08728516 119.28351563 -1.01292969 119.31703125 -2.14648438 119.3515625 C -12.89391073 119.47837579 -21.43012616 117.27685833 -29.2890625 109.72265625 C -29.85367188 109.15417969 -30.41828125 108.58570313 -31 108 C -32.36125 106.7625 -32.36125 106.7625 -33.75 105.5 C -40.81589588 97.64900458 -43.5721758 88.08212028 -43.4375 77.6875 C -43.42992676 76.86080811 -43.42235352 76.03411621 -43.41455078 75.18237305 C -43.07136947 62.34313349 -38.51746332 53.08451003 -29.3125 44.3125 C -24.3084055 40.10055946 -17.67625397 36 -11 36 C -10.96132812 35.03513672 -10.96132812 35.03513672 -10.921875 34.05078125 C -10.13741355 21.55288407 -5.91164895 10.93655055 0 0 Z M -12 141 C -11.67028521 144.29714793 -11.3773161 145.6226839 -9 148 C -5.70285207 147.67028521 -4.3773161 147.3773161 -2 145 C -2.36681658 142.06546739 -2.86437246 141.13562754 -5 139 C -8.9674509 138.56530472 -8.9674509 138.56530472 -12 141 Z M 154 141 C 154.32971479 144.29714793 154.6226839 145.6226839 157 148 C 160.29714793 147.67028521 161.6226839 147.3773161 164 145 C 163.63318342 142.06546739 163.13562754 141.13562754 161 139 C 157.0325491 138.56530472 157.0325491 138.56530472 154 141 Z M 127 165 C 126.32326553 168.40320934 126.32326553 168.40320934 126 172 C 126.66 172.66 127.32 173.32 128 174 C 131.29714793 173.67028521 132.6226839 173.3773161 135 171 C 134.63318342 168.06546739 134.13562754 167.13562754 132 165 C 129.41645782 164.83312552 129.41645782 164.83312552 127 165 Z" stroke-linecap="round" />
</g>
		<g transform="matrix(1 0 0 1 25.63 -47.17)"  >
<path style="stroke: none; stroke-width: 1; stroke-dasharray: none; stroke-linecap: butt; stroke-dashoffset: 0; stroke-linejoin: miter; stroke-miterlimit: 4; fill: rgb(71,73,182); fill-rule: nonzero; opacity: 1;"  transform=" translate(19.52, -53.9)" d="M 0 0 C 10.40576822 8.92533061 18.19680542 19.16249402 21.85546875 32.44921875 C 22.768125 32.45308594 22.768125 32.45308594 23.69921875 32.45703125 C 38.65593082 33.11688619 51.358087 39.39707144 61.54296875 50.19921875 C 72.61501107 63.53191008 75.07321343 78.01599552 74.10107422 94.86035156 C 73.00844633 106.37747492 68.33741781 117.41751014 59.85546875 125.44921875 C 57.19140625 126.33203125 57.19140625 126.33203125 54.85546875 126.44921875 C 52.98046875 125.38671875 52.98046875 125.38671875 51.85546875 123.44921875 C 51.85546875 118.78592937 53.40482852 116.58717588 56.453125 113.203125 C 63.61086337 104.25096754 66.05392375 92.66439026 64.85546875 81.44921875 C 63.09981036 73.49656074 60.31930751 66.26317823 55.85546875 59.44921875 C 55.19546875 58.43859375 54.53546875 57.42796875 53.85546875 56.38671875 C 47.17587237 48.81932791 35.78477442 43.20530473 25.8125 42.1171875 C 17.72781931 41.22107795 17.72781931 41.22107795 15.26171875 39.0390625 C 13.92354735 36.90974247 12.90640334 34.7353427 11.85546875 32.44921875 C 10.53956863 30.06211067 9.20663141 27.69093672 7.85546875 25.32421875 C 7.53481445 24.73866211 7.21416016 24.15310547 6.88378906 23.54980469 C -2.31434265 7.04152988 -18.68822455 -1.71477804 -36.3046875 -6.82421875 C -53.97968541 -11.34629524 -71.00551534 -7.22665467 -87.14453125 0.44921875 C -90.67850993 2.56121392 -93.9284216 4.88355824 -97.14453125 7.44921875 C -97.75039062 7.91585937 -98.35625 8.3825 -98.98046875 8.86328125 C -101.25770866 10.67396469 -103.05469121 12.31071536 -104.64453125 14.76171875 C -106.14453125 16.44921875 -106.14453125 16.44921875 -109.26953125 16.76171875 C -112.14453125 16.44921875 -112.14453125 16.44921875 -113.14453125 15.44921875 C -113.48526161 12.03231706 -113.52472825 10.07079422 -111.7109375 7.10546875 C -106.9382714 1.96996838 -102.15565271 -1.96205202 -96.14453125 -5.55078125 C -95.31566406 -6.07671875 -94.48679688 -6.60265625 -93.6328125 -7.14453125 C -88.61647565 -10.27878153 -83.8127876 -12.8533355 -78.14453125 -14.55078125 C -77.32855469 -14.82921875 -76.51257813 -15.10765625 -75.671875 -15.39453125 C -49.00685267 -23.14640854 -21.49664976 -16.72592696 0 0 Z" stroke-linecap="round" />
</g>
		<g transform="matrix(1 0 0 1 -46.93 81.97)"  >
<path style="stroke: none; stroke-width: 1; stroke-dasharray: none; stroke-linecap: butt; stroke-dashoffset: 0; stroke-linejoin: miter; stroke-miterlimit: 4; fill: rgb(71,74,181); fill-rule: nonzero; opacity: 1;"  transform=" translate(18.05, -21.7)" d="M 0 0 C 0.94875 0.04125 1.8975 0.0825 2.875 0.125 C 2.9988616 4.18156281 3.08945733 8.23738978 3.1496582 12.29541016 C 3.1747593 13.67483702 3.20884873 15.05413142 3.25219727 16.43310547 C 3.31302875 18.41835872 3.33857937 20.40459359 3.36328125 22.390625 C 3.38946533 23.58461914 3.41564941 24.77861328 3.44262695 26.00878906 C 2.875 29.125 2.875 29.125 0.51171875 31.52148438 C -2.46426504 33.3313234 -3.99854727 33.55841081 -7.4375 33.375 C -8.32050781 33.33890625 -9.20351562 33.3028125 -10.11328125 33.265625 C -10.77714844 33.21921875 -11.44101563 33.1728125 -12.125 33.125 C -12.3725 33.8675 -12.62 34.61 -12.875 35.375 C -14.23791363 38.37340999 -15.62595178 40.00459545 -18.125 42.125 C -23.06775772 43.77258591 -28.03725178 43.91370488 -32.9375 42.0625 C -36.41275779 38.98441453 -38.62767648 35.68194617 -39.51171875 31.13671875 C -39.81344066 25.77855373 -38.29305146 22.40615062 -35.125 18.125 C -31.16572336 15.59546215 -26.70347576 15.56898017 -22.125 16.125 C -15.70693669 18.1240689 -15.70693669 18.1240689 -13.5625 21.8125 C -13.088125 22.575625 -12.61375 23.33875 -12.125 24.125 C -9.06496522 24.31779443 -9.06496522 24.31779443 -6.125 24.125 C -6.10518066 23.46902832 -6.08536133 22.81305664 -6.06494141 22.13720703 C -5.96987493 19.17438931 -5.86012248 16.21229468 -5.75 13.25 C -5.7190625 12.21746094 -5.688125 11.18492187 -5.65625 10.12109375 C -5.61757812 9.13496094 -5.57890625 8.14882813 -5.5390625 7.1328125 C -5.5076416 6.22160645 -5.4762207 5.31040039 -5.44384766 4.37158203 C -4.90963972 0.60758403 -3.6855503 0.14742201 0 0 Z M -30.125 27.125 C -29.79528521 30.42214793 -29.5023161 31.7476839 -27.125 34.125 C -24.52219432 33.80458603 -24.52219432 33.80458603 -22.125 33.125 C -21.4371764 30.77132287 -21.4371764 30.77132287 -21.125 28.125 C -21.785 27.135 -22.445 26.145 -23.125 25.125 C -26.58295783 24.69275527 -27.60475609 24.60475609 -30.125 27.125 Z" stroke-linecap="round" />
</g>
		<g transform="matrix(1 0 0 1 -0.04 100.96)"  >
<path style="stroke: none; stroke-width: 1; stroke-dasharray: none; stroke-linecap: butt; stroke-dashoffset: 0; stroke-linejoin: miter; stroke-miterlimit: 4; fill: rgb(71,74,181); fill-rule: nonzero; opacity: 1;"  transform=" translate(-0.52, -18.76)" d="M 0 0 C 2.5625 0.1875 2.5625 0.1875 4.5625 2.1875 C 4.7578125 4.3515625 4.7578125 4.3515625 4.6875 6.8125 C 4.66945312 7.62976563 4.65140625 8.44703125 4.6328125 9.2890625 C 4.60960937 9.91554688 4.58640625 10.54203125 4.5625 11.1875 C 5.305 11.414375 6.0475 11.64125 6.8125 11.875 C 10.40797661 13.59102293 11.64911266 14.64419011 13.5625 18.1875 C 14.31113984 23.64727742 14.54319291 28.43626266 11.8125 33.3125 C 7.08928685 37.24851096 3.3051452 37.6125157 -2.734375 37.515625 C -6.67735953 37.03699682 -8.50000606 35.81578405 -11.4375 33.1875 C -13.7694671 28.5235658 -12.9648699 22.250251 -12.4375 17.1875 C -11.07770998 14.40265003 -10.1660277 13.86182382 -7.4375 12.1875 C -6.113613 11.81843078 -4.78093936 11.47743029 -3.4375 11.1875 C -3.44910156 10.47722656 -3.46070313 9.76695312 -3.47265625 9.03515625 C -3.48619141 7.65650391 -3.48619141 7.65650391 -3.5 6.25 C -3.51160156 5.33347656 -3.52320313 4.41695313 -3.53515625 3.47265625 C -3.39916631 0.29049156 -3.17893404 0.24453339 0 0 Z M -4.4375 22.1875 C -4.10778521 25.48464793 -3.8148161 26.8101839 -1.4375 29.1875 C 1.49703261 28.82068342 2.42687246 28.32312754 4.5625 26.1875 C 4.8125773 23.64559998 4.8125773 23.64559998 4.5625 21.1875 C 3.45083136 19.85562207 3.45083136 19.85562207 0.625 20 C -2.54642859 19.85471267 -2.54642859 19.85471267 -4.4375 22.1875 Z" stroke-linecap="round" />
</g>
</g>
</g>
</svg>